<svg xmlns="http://www.w3.org/2000/svg" viewBox="0 0 1200 1500" font-family="Microsoft YaHei, SimHei, Arial, sans-serif">
  <defs>
    <marker id="arrow" markerWidth="10" markerHeight="7" refX="10" refY="3.5" orient="auto"><polygon points="0 0, 10 3.5, 0 7" fill="#475569"/></marker>
    <marker id="arrowUp" markerWidth="10" markerHeight="7" refX="5" refY="7" orient="auto"><polygon points="0 7, 5 0, 10 7" fill="#475569"/></marker>
    <linearGradient id="headerGrad" x1="0%" y1="0%" x2="100%" y2="0%"><stop offset="0%" style="stop-color:#1e3a5f"/><stop offset="100%" style="stop-color:#2563eb"/></linearGradient>
    <filter id="shadow" x="-2%" y="-2%" width="104%" height="104%"><feDropShadow dx="1" dy="2" stdDeviation="3" flood-opacity="0.15"/></filter>
  </defs>

  <!-- Background -->
  <rect width="1200" height="1500" fill="#f1f5f9"/>

  <!-- Title -->
  <rect x="0" y="0" width="1200" height="55" fill="url(#headerGrad)"/>
  <text x="600" y="35" text-anchor="middle" fill="white" font-size="20" font-weight="bold">MiniClaude 系统架构图 (System Architecture)</text>

  <!-- ===== LAYER 1: 用户接口层 ===== -->
  <rect x="30" y="75" width="1140" height="185" rx="10" fill="#eff6ff" stroke="#93c5fd" stroke-width="2" filter="url(#shadow)"/>
  <text x="50" y="100" fill="#2563eb" font-size="16" font-weight="bold">用户接口层 (User Interface Layer)</text>

  <!-- TUI -->
  <rect x="60" y="115" width="520" height="130" rx="8" fill="white" stroke="#3b82f6" stroke-width="1.5"/>
  <text x="320" y="140" text-anchor="middle" fill="#1e40af" font-size="14" font-weight="bold">mini-tui (Textual 终端界面)</text>
  <rect x="80" y="152" width="155" height="36" rx="5" fill="#dbeafe"/>
  <text x="157" y="167" text-anchor="middle" fill="#1d4ed8" font-size="10">ChatTextArea</text>
  <text x="157" y="181" text-anchor="middle" fill="#3b82f6" font-size="9">消息输入 + 斜杠命令</text>
  <rect x="245" y="152" width="155" height="36" rx="5" fill="#dbeafe"/>
  <text x="322" y="167" text-anchor="middle" fill="#1d4ed8" font-size="10">LLMStreamBlock</text>
  <text x="322" y="181" text-anchor="middle" fill="#3b82f6" font-size="9">流式 Token 渲染</text>
  <rect x="410" y="152" width="155" height="36" rx="5" fill="#dbeafe"/>
  <text x="487" y="167" text-anchor="middle" fill="#1d4ed8" font-size="10">ToolCallBlock</text>
  <text x="487" y="181" text-anchor="middle" fill="#3b82f6" font-size="9">工具调用展开/折叠</text>
  <rect x="80" y="195" width="155" height="32" rx="5" fill="#fef3c7"/>
  <text x="157" y="210" text-anchor="middle" fill="#92400e" font-size="10">PermissionSelect</text>
  <text x="157" y="224" text-anchor="middle" fill="#b45309" font-size="9">内嵌权限审批</text>
  <rect x="245" y="195" width="155" height="32" rx="5" fill="#fef3c7"/>
  <text x="322" y="210" text-anchor="middle" fill="#92400e" font-size="10">SlashCompleteWidget</text>
  <text x="322" y="224" text-anchor="middle" fill="#b45309" font-size="9">斜杠命令自动补全</text>
  <rect x="410" y="195" width="155" height="32" rx="5" fill="#e0e7ff"/>
  <text x="487" y="210" text-anchor="middle" fill="#4338ca" font-size="10">MiniTuiApp</text>
  <text x="487" y="224" text-anchor="middle" fill="#6366f1" font-size="9">应用入口 + 连接重试</text>

  <!-- CLI -->
  <rect x="610" y="115" width="540" height="130" rx="8" fill="white" stroke="#64748b" stroke-width="1.5"/>
  <text x="880" y="140" text-anchor="middle" fill="#334155" font-size="14" font-weight="bold">mini CLI (命令行工具)</text>
  <rect x="630" y="152" width="120" height="36" rx="5" fill="#e2e8f0"/>
  <text x="690" y="167" text-anchor="middle" fill="#475569" font-size="10">ping</text>
  <text x="690" y="181" text-anchor="middle" fill="#64748b" font-size="9">健康检测</text>
  <rect x="760" y="152" width="120" height="36" rx="5" fill="#e2e8f0"/>
  <text x="820" y="167" text-anchor="middle" fill="#475569" font-size="10">run --goal</text>
  <text x="820" y="181" text-anchor="middle" fill="#64748b" font-size="9">单次 Agent 运行</text>
  <rect x="890" y="152" width="120" height="36" rx="5" fill="#e2e8f0"/>
  <text x="950" y="167" text-anchor="middle" fill="#475569" font-size="10">chat</text>
  <text x="950" y="181" text-anchor="middle" fill="#64748b" font-size="9">多轮对话</text>
  <rect x="630" y="195" width="120" height="32" rx="5" fill="#e2e8f0"/>
  <text x="690" y="210" text-anchor="middle" fill="#475569" font-size="10">core start/stop</text>
  <text x="690" y="224" text-anchor="middle" fill="#64748b" font-size="9">守护进程管理</text>
  <rect x="760" y="195" width="120" height="32" rx="5" fill="#e2e8f0"/>
  <text x="820" y="210" text-anchor="middle" fill="#475569" font-size="10">trace</text>
  <text x="820" y="224" text-anchor="middle" fill="#64748b" font-size="9">追踪日志查看</text>
  <rect x="890" y="195" width="120" height="32" rx="5" fill="#f1f5f9"/>
  <text x="950" y="212" text-anchor="middle" fill="#64748b" font-size="9">--version</text>

  <!-- Arrow down -->
  <line x1="600" y1="260" x2="600" y2="285" stroke="#475569" stroke-width="2.5" marker-end="url(#arrow)"/>

  <!-- ===== LAYER 2: 传输层 ===== -->
  <rect x="30" y="287" width="1140" height="110" rx="10" fill="#f0fdf4" stroke="#86efac" stroke-width="2" filter="url(#shadow)"/>
  <text x="50" y="312" fill="#166534" font-size="16" font-weight="bold">传输层 (Transport Layer)</text>

  <rect x="60" y="327" width="530" height="55" rx="8" fill="white" stroke="#22c55e" stroke-width="1.5"/>
  <text x="325" y="350" text-anchor="middle" fill="#166534" font-size="14" font-weight="bold">SocketClient (TCP 客户端)</text>
  <text x="325" y="370" text-anchor="middle" fill="#64748b" font-size="10">send_command() · Future-based 请求/响应 · 事件分发 · 自动重连</text>

  <rect x="610" y="327" width="540" height="55" rx="8" fill="white" stroke="#22c55e" stroke-width="1.5"/>
  <text x="880" y="350" text-anchor="middle" fill="#166534" font-size="14" font-weight="bold">SocketServer (TCP 服务端)</text>
  <text x="880" y="370" text-anchor="middle" fill="#64748b" font-size="10">NDJSON 行协议 (1MB/帧) · 方法分发 · IpcEventBroadcaster (topic scoped fan-out)</text>

  <!-- Bidirectional arrow -->
  <line x1="590" y1="355" x2="610" y2="355" stroke="#22c55e" stroke-width="2.5"/>
  <text x="600" y="345" text-anchor="middle" fill="#16a34a" font-size="10" font-weight="bold">JSON-RPC 2.0</text>
  <text x="600" y="405" text-anchor="middle" fill="#16a34a" font-size="10">TCP 127.0.0.1:7437</text>

  <!-- Arrow down -->
  <line x1="600" y1="397" x2="600" y2="422" stroke="#475569" stroke-width="2.5" marker-end="url(#arrow)"/>

  <!-- ===== LAYER 3: 协议层 ===== -->
  <rect x="30" y="424" width="1140" height="95" rx="10" fill="#fefce8" stroke="#fde047" stroke-width="2" filter="url(#shadow)"/>
  <text x="50" y="449" fill="#854d0e" font-size="16" font-weight="bold">协议层 (Protocol Layer) — bus/</text>

  <rect x="60" y="464" width="345" height="40" rx="6" fill="white" stroke="#f59e0b" stroke-width="1"/>
  <text x="232" y="481" text-anchor="middle" fill="#92400e" font-size="12">envelope.py: JSON-RPC 2.0 信封 + 错误码</text>
  <text x="232" y="496" text-anchor="middle" fill="#b45309" font-size="9">JsonRpcRequest / Success / Error / EventPush</text>

  <rect x="420" y="464" width="345" height="40" rx="6" fill="white" stroke="#f59e0b" stroke-width="1"/>
  <text x="592" y="481" text-anchor="middle" fill="#92400e" font-size="12">commands.py: 9 对命令/结果模型</text>
  <text x="592" y="496" text-anchor="middle" fill="#b45309" font-size="9">Ping · AgentRun · Permission · Session · Event · Compact</text>

  <rect x="780" y="464" width="370" height="40" rx="6" fill="white" stroke="#f59e0b" stroke-width="1"/>
  <text x="965" y="481" text-anchor="middle" fill="#92400e" font-size="12">events.py: 22 种事件模型 (Pydantic Discriminated Union)</text>
  <text x="965" y="496" text-anchor="middle" fill="#b45309" font-size="9">Run · Step · Tool · LLM · Session · Permission · Subagent · Skill</text>

  <!-- Arrow down -->
  <line x1="600" y1="519" x2="600" y2="544" stroke="#475569" stroke-width="2.5" marker-end="url(#arrow)"/>

  <!-- ===== LAYER 4: 守护进程核心 ===== -->
  <rect x="30" y="546" width="1140" height="560" rx="10" fill="#fef2f2" stroke="#fca5a5" stroke-width="2" filter="url(#shadow)"/>
  <text x="50" y="571" fill="#991b1b" font-size="16" font-weight="bold">守护进程核心 (Daemon Core) — CoreApp</text>

  <!-- CoreApp orchestrator -->
  <rect x="60" y="586" width="1080" height="40" rx="8" fill="#fecaca" stroke="#ef4444" stroke-width="1.5"/>
  <text x="600" y="611" text-anchor="middle" fill="#991b1b" font-size="14" font-weight="bold">CoreApp (核心编排器) — 加载配置 · 初始化所有服务 · 注册 9 个 IPC 处理函数 · 信号管理</text>

  <!-- Row 1 -->
  <rect x="60" y="638" width="255" height="100" rx="8" fill="white" stroke="#ef4444" stroke-width="1"/>
  <text x="187" y="658" text-anchor="middle" fill="#991b1b" font-size="12" font-weight="bold">event/ 事件系统</text>
  <text x="187" y="678" text-anchor="middle" fill="#64748b" font-size="10">EventBus (pub/sub)</text>
  <text x="187" y="695" text-anchor="middle" fill="#64748b" font-size="10">EventWriter</text>
  <text x="187" y="712" text-anchor="middle" fill="#64748b" font-size="10">→ events.jsonl</text>
  <text x="187" y="729" text-anchor="middle" fill="#64748b" font-size="10">IpcBroadcaster</text>

  <rect x="330" y="638" width="255" height="100" rx="8" fill="white" stroke="#ef4444" stroke-width="1"/>
  <text x="457" y="658" text-anchor="middle" fill="#991b1b" font-size="12" font-weight="bold">session/ 会话管理</text>
  <text x="457" y="678" text-anchor="middle" fill="#64748b" font-size="10">SessionManager (生命周期)</text>
  <text x="457" y="695" text-anchor="middle" fill="#64748b" font-size="10">SessionStore</text>
  <text x="457" y="712" text-anchor="middle" fill="#64748b" font-size="10">→ meta.json / thread.jsonl</text>
  <text x="457" y="729" text-anchor="middle" fill="#64748b" font-size="10">→ notes.md</text>

  <rect x="600" y="638" width="255" height="100" rx="8" fill="white" stroke="#ef4444" stroke-width="1"/>
  <text x="727" y="658" text-anchor="middle" fill="#991b1b" font-size="12" font-weight="bold">permissions/ 权限系统</text>
  <text x="727" y="678" text-anchor="middle" fill="#64748b" font-size="10">PermissionManager</text>
  <text x="727" y="695" text-anchor="middle" fill="#64748b" font-size="10">6 级优先级审查</text>
  <text x="727" y="712" text-anchor="middle" fill="#64748b" font-size="10">policy.toml 持久缓存</text>
  <text x="727" y="729" text-anchor="middle" fill="#64748b" font-size="10">60s 超时 + Future 机制</text>

  <rect x="870" y="638" width="270" height="100" rx="8" fill="white" stroke="#ef4444" stroke-width="1"/>
  <text x="1005" y="658" text-anchor="middle" fill="#991b1b" font-size="12" font-weight="bold">mcp/ MCP 集成</text>
  <text x="1005" y="678" text-anchor="middle" fill="#64748b" font-size="10">McpServerManager</text>
  <text x="1005" y="695" text-anchor="middle" fill="#64748b" font-size="10">McpClient</text>
  <text x="1005" y="712" text-anchor="middle" fill="#64748b" font-size="10">stdio / TCP 连接</text>
  <text x="1005" y="729" text-anchor="middle" fill="#64748b" font-size="10">McpTool (name__tool)</text>

  <!-- Arrow to AgentRunner -->
  <line x1="600" y1="626" x2="600" y2="750" stroke="#dc2626" stroke-width="2" marker-end="url(#arrow)"/>

  <!-- AgentRunner + AgentLoop -->
  <rect x="60" y="750" width="1080" height="170" rx="8" fill="#fff1f2" stroke="#f43f5e" stroke-width="1.5"/>
  <text x="80" y="772" fill="#9f1239" font-size="13" font-weight="bold">AgentRunner ──► AgentLoop (ReAct 循环)</text>

  <rect x="80" y="785" width="200" height="120" rx="6" fill="white" stroke="#f43f5e" stroke-width="0.5"/>
  <text x="180" y="805" text-anchor="middle" fill="#e11d48" font-size="11" font-weight="bold">ExecutionContext</text>
  <text x="180" y="825" text-anchor="middle" fill="#64748b" font-size="9">消息状态机</text>
  <text x="180" y="842" text-anchor="middle" fill="#64748b" font-size="9">System Prompt 构建</text>
  <text x="180" y="859" text-anchor="middle" fill="#64748b" font-size="9">step 计数</text>
  <text x="180" y="876" text-anchor="middle" fill="#64748b" font-size="9">停止判断</text>
  <text x="180" y="893" text-anchor="middle" fill="#64748b" font-size="9">+ Context/Memory</text>

  <rect x="295" y="785" width="200" height="120" rx="6" fill="white" stroke="#f43f5e" stroke-width="0.5"/>
  <text x="395" y="805" text-anchor="middle" fill="#e11d48" font-size="11" font-weight="bold">llm/ LLM 集成</text>
  <text x="395" y="825" text-anchor="middle" fill="#64748b" font-size="9">AnthropicProvider</text>
  <text x="395" y="842" text-anchor="middle" fill="#64748b" font-size="9">流式 API + 重试 3 次</text>
  <text x="395" y="859" text-anchor="middle" fill="#64748b" font-size="9">Prompt Caching</text>
  <text x="395" y="876" text-anchor="middle" fill="#64748b" font-size="9">TracingProvider</text>
  <text x="395" y="893" text-anchor="middle" fill="#64748b" font-size="9">(LLM 调用追踪)</text>

  <rect x="510" y="785" width="200" height="120" rx="6" fill="white" stroke="#f43f5e" stroke-width="0.5"/>
  <text x="610" y="805" text-anchor="middle" fill="#e11d48" font-size="11" font-weight="bold">tools/ 工具系统</text>
  <text x="610" y="825" text-anchor="middle" fill="#64748b" font-size="9">ToolRegistry</text>
  <text x="610" y="842" text-anchor="middle" fill="#64748b" font-size="9">invoke_tool() 管道</text>
  <text x="610" y="859" text-anchor="middle" fill="#64748b" font-size="9">内置 9 个工具</text>
  <text x="610" y="876" text-anchor="middle" fill="#64748b" font-size="9">MCP 工具桥接</text>
  <text x="610" y="893" text-anchor="middle" fill="#64748b" font-size="9">子 Agent 工具</text>

  <rect x="725" y="785" width="200" height="120" rx="6" fill="white" stroke="#f43f5e" stroke-width="0.5"/>
  <text x="825" y="805" text-anchor="middle" fill="#e11d48" font-size="11" font-weight="bold">compact/ 压缩</text>
  <text x="825" y="825" text-anchor="middle" fill="#64748b" font-size="9">Compactor</text>
  <text x="825" y="842" text-anchor="middle" fill="#64748b" font-size="9">LLM 摘要压缩</text>
  <text x="825" y="859" text-anchor="middle" fill="#64748b" font-size="9">budget.py</text>
  <text x="825" y="876" text-anchor="middle" fill="#64748b" font-size="9">工具结果截断</text>
  <text x="825" y="893" text-anchor="middle" fill="#64748b" font-size="9">8KB→4KB</text>

  <rect x="940" y="785" width="180" height="120" rx="6" fill="white" stroke="#f43f5e" stroke-width="0.5"/>
  <text x="1030" y="805" text-anchor="middle" fill="#e11d48" font-size="11" font-weight="bold">subagent/</text>
  <text x="1030" y="825" text-anchor="middle" fill="#64748b" font-size="9">SpawnAgentTool</text>
  <text x="1030" y="842" text-anchor="middle" fill="#64748b" font-size="9">AgentResultTool</text>
  <text x="1030" y="859" text-anchor="middle" fill="#64748b" font-size="9">max depth 2</text>
  <text x="1030" y="876" text-anchor="middle" fill="#64748b" font-size="9">BackgroundTask</text>
  <text x="1030" y="893" text-anchor="middle" fill="#64748b" font-size="9">Registry</text>

  <!-- Arrow down to persistence -->
  <line x1="600" y1="920" x2="600" y2="945" stroke="#475569" stroke-width="2.5" marker-end="url(#arrow)"/>

  <!-- ===== LAYER 5: 持久化层 ===== -->
  <rect x="30" y="947" width="1140" height="210" rx="10" fill="#f5f3ff" stroke="#a5b4fc" stroke-width="2" filter="url(#shadow)"/>
  <text x="50" y="972" fill="#4338ca" font-size="16" font-weight="bold">持久化层 (Persistence Layer)</text>

  <!-- Directories -->
  <rect x="60" y="987" width="165" height="80" rx="6" fill="white" stroke="#8b5cf6" stroke-width="1"/>
  <text x="142" y="1007" text-anchor="middle" fill="#6d28d9" font-size="11" font-weight="bold">~/.kama/</text>
  <text x="142" y="1025" text-anchor="middle" fill="#64748b" font-size="9">config.toml</text>
  <text x="142" y="1042" text-anchor="middle" fill="#64748b" font-size="9">policy.toml</text>
  <text x="142" y="1059" text-anchor="middle" fill="#64748b" font-size="9">context.md</text>

  <rect x="240" y="987" width="200" height="80" rx="6" fill="white" stroke="#8b5cf6" stroke-width="1"/>
  <text x="340" y="1007" text-anchor="middle" fill="#6d28d9" font-size="11" font-weight="bold">~/.kama/sessions/</text>
  <text x="340" y="1025" text-anchor="middle" fill="#64748b" font-size="9">{id}/meta.json</text>
  <text x="340" y="1042" text-anchor="middle" fill="#64748b" font-size="9">{id}/thread.jsonl</text>
  <text x="340" y="1059" text-anchor="middle" fill="#64748b" font-size="9">{id}/notes.md</text>

  <rect x="455" y="987" width="190" height="80" rx="6" fill="white" stroke="#8b5cf6" stroke-width="1"/>
  <text x="550" y="1007" text-anchor="middle" fill="#6d28d9" font-size="11" font-weight="bold">runs/{run_id}/</text>
  <text x="550" y="1025" text-anchor="middle" fill="#64748b" font-size="9">events.jsonl</text>
  <text x="550" y="1042" text-anchor="middle" fill="#64748b" font-size="9">.tasks/task_*.json</text>
  <text x="550" y="1059" text-anchor="middle" fill="#64748b" font-size="9">(per-run 事件数据)</text>

  <rect x="660" y="987" width="180" height="80" rx="6" fill="white" stroke="#8b5cf6" stroke-width="1"/>
  <text x="750" y="1007" text-anchor="middle" fill="#6d28d9" font-size="11" font-weight="bold">~/.kama/traces/</text>
  <text x="750" y="1025" text-anchor="middle" fill="#64748b" font-size="9">daemon.jsonl</text>
  <text x="750" y="1042" text-anchor="middle" fill="#64748b" font-size="9">TraceRecord</text>
  <text x="750" y="1059" text-anchor="middle" fill="#64748b" font-size="9">(LLM 调用追踪)</text>

  <rect x="855" y="987" width="180" height="80" rx="6" fill="white" stroke="#8b5cf6" stroke-width="1"/>
  <text x="945" y="1007" text-anchor="middle" fill="#6d28d9" font-size="11" font-weight="bold">~/.kama/skills/</text>
  <text x="945" y="1025" text-anchor="middle" fill="#64748b" font-size="9">*.md / dir/SKILL.md</text>
  <text x="945" y="1042" text-anchor="middle" fill="#64748b" font-size="9">Markdown + YAML</text>
  <text x="945" y="1059" text-anchor="middle" fill="#64748b" font-size="9">frontmatter</text>

  <rect x="60" y="1080" width="165" height="60" rx="6" fill="white" stroke="#8b5cf6" stroke-width="1"/>
  <text x="142" y="1100" text-anchor="middle" fill="#6d28d9" font-size="11" font-weight="bold">~/.kama/logs/</text>
  <text x="142" y="1118" text-anchor="middle" fill="#64748b" font-size="9">core.log</text>
  <text x="142" y="1133" text-anchor="middle" fill="#64748b" font-size="9">(10MB 轮转 ×5)</text>

  <rect x="240" y="1080" width="200" height="60" rx="6" fill="white" stroke="#8b5cf6" stroke-width="1"/>
  <text x="340" y="1100" text-anchor="middle" fill="#6d28d9" font-size="11" font-weight="bold">项目本地</text>
  <text x="340" y="1118" text-anchor="middle" fill="#64748b" font-size="9">.kama/context.md</text>
  <text x="340" y="1133" text-anchor="middle" fill="#64748b" font-size="9">.env (配置)</text>

  <!-- ===== LAYER 6: 外部依赖 ===== -->
  <rect x="30" y="1175" width="1140" height="120" rx="10" fill="#f8fafc" stroke="#cbd5e1" stroke-width="2" filter="url(#shadow)"/>
  <text x="50" y="1200" fill="#475569" font-size="16" font-weight="bold">外部依赖 (External Dependencies)</text>

  <rect x="60" y="1215" width="240" height="65" rx="8" fill="white" stroke="#64748b" stroke-width="1"/>
  <text x="180" y="1240" text-anchor="middle" fill="#334155" font-size="12" font-weight="bold">Anthropic Claude API</text>
  <text x="180" y="1260" text-anchor="middle" fill="#64748b" font-size="10">流式 LLM 调用 + Prompt Caching</text>
  <text x="180" y="1273" text-anchor="middle" fill="#64748b" font-size="10">claude-sonnet-4-6</text>

  <rect x="315" y="1215" width="240" height="65" rx="8" fill="white" stroke="#64748b" stroke-width="1"/>
  <text x="435" y="1240" text-anchor="middle" fill="#334155" font-size="12" font-weight="bold">MCP 服务</text>
  <text x="435" y="1260" text-anchor="middle" fill="#64748b" font-size="10">stdio 子进程 / TCP 连接</text>
  <text x="435" y="1273" text-anchor="middle" fill="#64748b" font-size="10">文件系统 / Github 等</text>

  <rect x="570" y="1215" width="240" height="65" rx="8" fill="white" stroke="#64748b" stroke-width="1"/>
  <text x="690" y="1240" text-anchor="middle" fill="#334155" font-size="12" font-weight="bold">Python 生态</text>
  <text x="690" y="1260" text-anchor="middle" fill="#64748b" font-size="10">Pydantic v2 + Textual</text>
  <text x="690" y="1273" text-anchor="middle" fill="#64748b" font-size="10">Anthropic SDK + httpx</text>

  <rect x="825" y="1215" width="320" height="65" rx="8" fill="white" stroke="#64748b" stroke-width="1"/>
  <text x="985" y="1240" text-anchor="middle" fill="#334155" font-size="12" font-weight="bold">Agent 配置文件</text>
  <text x="985" y="1260" text-anchor="middle" fill="#64748b" font-size="10">agents/builtin/{planner,executor,reviewer}.toml</text>
  <text x="985" y="1273" text-anchor="middle" fill="#64748b" font-size="10">Skills: Markdown + YAML frontmatter</text>

  <!-- Bottom summary -->
  <rect x="30" y="1310" width="1140" height="60" rx="10" fill="url(#headerGrad)" filter="url(#shadow)"/>
  <text x="600" y="1335" text-anchor="middle" fill="white" font-size="14">架构特点: 双进程 (daemon + client) · JSON-RPC 2.0 over NDJSON · Pydantic v2 类型安全 · asyncio 全异步 · 分层解耦</text>
  <text x="600" y="1358" text-anchor="middle" fill="#93c5fd" font-size="12">配置 4 级覆盖 · 权限 6 级审查 · 事件驱动的发布/订阅 · 工具管道(校验→权限→超时→重试) · LLM 调用追踪</text>
</svg>
